<svg version="1.1" id="Layer_1" xmlns="http://www.w3.org/2000/svg" x="0" y="0" viewBox="0 0 170.9 40.9" xml:space="preserve"><style>.st2{fill:#FFFFFF}</style><path class="st2" d="M151.4 13.4h3.1l.1 1.3a4.6 4.6 0 013.6-1.7c3.4 0 5.3 2.1 5.3 5.8v8.6h-3.2v-8.6c.1-1.5-1-2.9-2.6-3-1.5-.1-2.9 1-3 2.6v9h-3.2l-.1-14zm-27.5 14.1h-3.3V7h3.3v20.5zm7 0h-3.3V13.4h3.3v14.1zm-1.7-20.8c-1.1 0-2 .9-2 2s.9 2 2 2 2-.9 2-2c0-1.2-.9-2.1-2-2m-15.5 6.7h3.3v14.1h-3.2l-.1-1.5c-1.2 1.2-2.7 1.8-4.4 1.9-3.8 0-6.7-3.1-6.7-7.4 0-4.6 3.1-7.4 6.7-7.4 1.7 0 3.3.6 4.4 1.9v-1.6zm-7.7 7c0 2.7 1.7 4.5 4 4.5 2.1 0 4-1.5 4-4.5s-1.8-4.5-4-4.5c-2.4 0-4 1.9-4 4.5m38.6 0c0-2.9-1.9-4.5-4-4.5-2.5 0-4 2-4 4.5s1.6 4.5 4 4.5c2.2 0 4-1.7 4-4.5m3.1 5.6c0 6-3.5 8-7.7 8-1.7 0-3.4-.4-5-1.1l.8-2.8c1.3.7 2.7 1.1 4.2 1.1 2.3.1 4.3-1.7 4.4-4v-1.3c-1.1 1.2-2.7 1.9-4.4 1.9-3.8 0-6.7-3-6.7-7.4 0-4.2 2.7-7.4 6.7-7.4 1.7-.1 3.3.6 4.4 1.9v-1.5h3.2l.1 12.6zM73.1 13.4l3.7 8.5 3.6-8.5H84l-7.3 15.1-7.2-15.1h3.6zm18.2 10.8c1.1.6 2.4 1 3.7 1.1 1.6 0 2.3-.7 2.3-1.6s-.6-1.5-2.3-2.1c-2.8-.9-3.9-2.4-3.9-4.1 0-2.5 2-4.5 5.3-4.5 1.3 0 2.6.3 3.8.9l-.7 2.5c-.9-.5-1.9-.8-3-.8-1.3 0-2.1.6-2.1 1.5s.7 1.4 2.5 2c2.6.9 3.7 2.2 3.8 4.3 0 2.6-1.9 4.4-5.7 4.4-1.5 0-3-.3-4.3-1l.6-2.6zM53 27.5h-3.2V13.4H53v14.1zM51.4 6.7c-1.1 0-2 .9-2 2s.9 2 2 2 2-.9 2-2c0-1.2-.9-2.1-2-2m37 20.8h-3.2V13.4h3.2v14.1zM86.8 6.7c-1.1 0-2 .9-2 2s.9 2 2 2 2-.9 2-2c0-1.2-.9-2.1-2-2m-30.1 6.7h3.1v1.3c.9-1.1 2.2-1.7 3.7-1.7 3.2 0 5.3 2.1 5.3 5.8v8.6h-3.2V19c.2-1.5-.9-3-2.4-3.2-1.5-.2-3 .9-3.2 2.4v9.2h-3.3v-14z"/><path d="M24.9 12.6c1.4.8 2.6 2 3.4 3.4-1.5.9-3.2 1.5-4.9 1.5 0-1.7.5-3.5 1.5-4.9m3.4 12.2c-1.5-.9-3.2-1.5-5-1.5.1 1.8.6 3.5 1.5 5 1.5-.8 2.7-2 3.5-3.5m-3.8-4.4c1.3 1.2 2.9 2 4.6 2.4.4-1.6.4-3.2 0-4.8-1.7.4-3.3 1.3-4.6 2.4m-8.2 0c-1.3-1.2-2.9-2-4.6-2.4-.4 1.6-.4 3.2 0 4.8 1.8-.4 3.3-1.2 4.6-2.4m1.2 2.9c-1.8.1-3.5.6-4.9 1.5.8 1.4 2 2.6 3.4 3.4.9-1.4 1.5-3.1 1.5-4.9m0-5.8c-.1-1.8-.6-3.5-1.6-5-1.4.8-2.6 2.1-3.4 3.5 1.6.9 3.3 1.5 5 1.5m2.9 7c-1.2 1.3-2 2.9-2.4 4.6 1.6.4 3.2.4 4.8 0-.4-1.7-1.2-3.3-2.4-4.6m0-8.2c1.2-1.3 2-2.9 2.4-4.6-1.6-.4-3.2-.4-4.8 0 .4 1.7 1.2 3.3 2.4 4.6" opacity=".5" fill="#FFFFFF"/><path class="st2" d="M28.5 8.9c2-1.3 4.1-2.3 6.4-2.9-.6 2.3-1.6 4.4-2.9 6.4-1-1.4-2.1-2.6-3.5-3.5m-5.6-2.3C22.4 4.3 21.6 2 20.4 0c-1.2 2-2 4.3-2.4 6.6.8-.1 1.6-.2 2.5-.2.8-.1 1.6 0 2.4.2M28.5 32c2 1.3 4.1 2.3 6.4 2.9-.6-2.3-1.6-4.4-2.9-6.4-1 1.4-2.1 2.5-3.5 3.5M6.6 18c-2.3.5-4.6 1.3-6.6 2.4 2 1.2 4.3 2 6.6 2.5-.3-1.6-.3-3.3 0-4.9m27.7 4.9c2.3-.5 4.5-1.3 6.6-2.5-2-1.1-4.3-2-6.6-2.4.3 1.6.3 3.3 0 4.9M12.4 9c-2-1.3-4.1-2.3-6.4-3 .6 2.3 1.6 4.4 2.9 6.4C9.8 11 11 9.8 12.4 9M18 34.3c.5 2.3 1.3 4.5 2.5 6.6 1.2-2 2-4.3 2.5-6.6-1.7.3-3.4.3-5 0m-9.1-5.8c-1.3 2-2.3 4.1-2.9 6.4 2.3-.6 4.4-1.6 6.4-2.9-1.4-1-2.6-2.1-3.5-3.5"/><path d="M23.2 31.8c0 .8-.1 1.7-.2 2.5-1.7.3-3.3.3-5 0-.2-.8-.2-1.7-.2-2.5 0-.9.1-1.8.3-2.7 1.6.4 3.2.4 4.8 0l.3 2.7M29.1 18c.4 1.6.4 3.2 0 4.8.9.2 1.8.3 2.7.3.8 0 1.7-.1 2.5-.2.3-1.6.3-3.3 0-4.9-.8-.2-1.7-.2-2.5-.2-.9-.1-1.8 0-2.7.2m-.8 6.9c-.8 1.4-2 2.6-3.4 3.4.5.8 1 1.5 1.7 2.1.6.6 1.3 1.1 2 1.6 1.4-1 2.5-2.1 3.5-3.5-.5-.7-1-1.4-1.6-2-.7-.6-1.4-1.2-2.2-1.6m-16.5-2.1c-.4-1.6-.4-3.2 0-4.8-.9-.2-1.8-.3-2.7-.3-.9 0-1.7.1-2.5.3-.3 1.6-.3 3.3 0 5 .8.2 1.7.2 2.5.2.9 0 1.8-.1 2.7-.4m13.1-10.2c1.4.8 2.6 2 3.4 3.4.8-.5 1.5-1 2.1-1.7.6-.6 1.1-1.3 1.6-2-1-1.4-2.1-2.5-3.5-3.5-.7.5-1.4 1-2 1.6-.6.7-1.2 1.4-1.6 2.2m-6.9-.9c1.6-.4 3.2-.4 4.8 0 .2-.9.3-1.8.3-2.7 0-.8-.1-1.7-.2-2.5-1.7-.3-3.3-.3-5 0-.2.8-.2 1.7-.2 2.5-.1 1 .1 1.9.3 2.7M12.6 16c.8-1.4 2-2.6 3.4-3.4-.5-.8-1-1.5-1.7-2.1-.6-.6-1.3-1.1-2-1.6-1.4 1-2.5 2.1-3.5 3.5.5.7 1 1.4 1.6 2 .7.6 1.4 1.1 2.2 1.6M16 28.3c-1.4-.8-2.6-2-3.4-3.4-.8.5-1.5 1-2.1 1.7-.6.6-1.1 1.3-1.6 2 1 1.4 2.1 2.5 3.5 3.5.7-.5 1.4-1 2-1.6.6-.7 1.2-1.4 1.6-2.2" opacity=".75" fill="#FFFFFF"/><path class="st2" d="M168.8 12.6c1.2 0 2.2 1 2.2 2.1s-1 2.2-2.1 2.2c-1.2 0-2.2-1-2.2-2.1-.1-1.3.8-2.2 2.1-2.2-.1 0-.1 0 0 0m0 4c1 0 1.9-.7 1.9-1.7S170 13 169 13s-1.9.7-1.9 1.7v.1c-.1.9.6 1.7 1.7 1.8-.1 0 0 0 0 0m-.9-3.1h.9c.4-.1.8.1.9.5v.2c0 .4-.3.7-.6.7h-.1l.7 1.1h-.4l-.7-1.1h-.4V16h-.4l.1-2.5zm.4 1.1h.4c.3 0 .7 0 .7-.4s-.3-.4-.6-.4h-.5v.8z"/></svg>