<svg width="126" height="61" viewBox="0 0 96 31" fill="none" xmlns="http://www.w3.org/2000/svg">
<path d="M45.0997 10.8606C44.553 10.3131 43.9152 9.88714 43.2471 9.61335C42.5789 9.33955 41.8197 9.21786 41.0301 9.21786C40.2404 9.21786 39.4812 9.36997 38.7827 9.61335C38.0842 9.88714 37.4767 10.3131 36.8997 10.8911C36.2619 11.5604 35.8671 12.1992 35.6849 12.8685C35.5027 13.5378 35.3812 14.2679 35.3812 15.1197V20.7782C35.3812 21.2954 35.8064 21.7517 36.3531 21.7517C36.8693 21.7517 37.3249 21.3258 37.3249 20.7782V15.2718C37.3249 13.9941 37.659 12.9598 38.2967 12.1992C38.6308 11.8037 38.9953 11.5299 39.4812 11.317C39.9367 11.104 40.4834 11.0128 41.0908 11.0128C41.7286 11.0128 42.2752 11.1344 42.7612 11.3474C43.2471 11.5604 43.6419 11.895 43.976 12.2905C44.5834 13.051 44.8871 14.055 44.8871 15.2718V20.7782C44.8871 21.2954 45.3122 21.7517 45.8589 21.7517C46.4056 21.7517 46.8307 21.3258 46.8307 20.7782V15.0893C46.8307 14.2679 46.7093 13.4769 46.4359 12.8077C46.1019 12.1079 45.6767 11.4691 45.0997 10.8606ZM28.7301 9.24828C27.5153 9.24828 26.5131 10.2522 26.5131 11.4691V19.9264C26.5131 23.577 23.5369 26.5584 19.8924 26.5584C16.248 26.5584 13.2718 23.577 13.2718 19.9264V11.4387C13.2718 10.2218 12.2695 9.21786 11.0547 9.21786C9.83992 9.21786 8.83771 10.2218 8.83771 11.4387V19.896C8.83771 26.0108 13.788 30.9696 19.8924 30.9696C25.9968 30.9696 30.9472 26.0108 30.9472 19.896V11.4387C30.9472 10.2218 29.9753 9.24828 28.7301 9.24828ZM17.6754 11.0736V19.5309C17.6754 20.7478 18.6776 21.7517 19.8924 21.7517C21.1072 21.7517 22.1095 20.7478 22.1095 19.5309V11.0736C22.1095 4.95878 17.1591 0 11.0547 0C4.95033 0 0 4.95878 0 11.0736V19.5309C0 20.7478 1.00221 21.7517 2.21702 21.7517C3.43183 21.7517 4.43404 20.7478 4.43404 19.5309V11.0736C4.43404 7.42296 7.41031 4.44161 11.0547 4.44161C14.6991 4.44161 17.6754 7.42296 17.6754 11.0736ZM57.7944 10.7694C57.3084 10.2522 56.7314 9.85672 56.0329 9.5525C55.3344 9.24828 54.5448 9.12659 53.6337 9.12659C52.844 9.12659 52.0544 9.2787 51.2952 9.58292C50.5359 9.88714 49.8981 10.3435 49.3515 10.9519C49.0174 11.317 48.7744 11.6516 48.5922 12.0167C48.41 12.3817 48.2885 12.7468 48.1974 13.1119C48.1063 13.4769 48.0759 13.842 48.0456 14.2375C48.0152 14.6026 48.0152 14.998 48.0152 15.3935V15.6673C48.0152 16.6104 48.1063 17.4318 48.3189 18.2228C48.5315 18.9833 48.8655 19.6222 49.3211 20.1698C49.7767 20.7174 50.3841 21.1129 51.1433 21.4171C51.9026 21.7213 52.7833 21.8734 53.8766 21.8734C54.9396 21.8734 55.8811 21.6604 56.701 21.2041C57.3692 20.8391 57.9462 20.3523 58.3714 19.7743C58.4929 19.6222 58.5536 19.4092 58.5536 19.1963C58.5536 18.6487 58.1284 18.2228 57.5818 18.2228C57.2781 18.2228 57.0047 18.3749 56.8225 18.6183C56.4581 19.0746 56.0633 19.4396 55.6077 19.7134C55.1522 19.9872 54.6055 20.1089 53.9677 20.1089C52.6618 20.1089 51.6596 19.7743 51.0218 19.1354C50.3841 18.4966 50.05 17.4622 50.05 16.0628H59.2218V14.9676C59.2218 14.1158 59.1003 13.3248 58.8573 12.6251C58.6144 11.895 58.2499 11.2866 57.7944 10.7694ZM57.1566 14.3288H50.1411V14.1158C50.1411 13.6899 50.2322 13.2944 50.3841 12.8989C50.5663 12.5034 50.7789 12.1688 51.1129 11.8646C51.4166 11.5604 51.8115 11.317 52.2366 11.1649C52.6618 10.9823 53.1477 10.8911 53.664 10.8911C54.2107 10.8911 54.6966 10.9823 55.1218 11.1649C55.547 11.3474 55.9114 11.5908 56.2151 11.895C56.5188 12.1992 56.7618 12.5339 56.9136 12.9293C57.0655 13.3248 57.1566 13.7203 57.1566 14.1158V14.3288ZM94.5422 9.12659C93.7222 9.12659 93.0845 9.76546 93.0845 10.5564C93.0845 11.3778 93.7222 11.9863 94.5422 11.9863C95.3622 11.9863 95.9696 11.3778 95.9696 10.5564C96 9.76546 95.3622 9.12659 94.5422 9.12659ZM94.5422 11.7429C93.8741 11.7429 93.3882 11.2257 93.3882 10.5564C93.3882 9.91757 93.8741 9.40039 94.5119 9.40039C95.1496 9.40039 95.6356 9.91757 95.6356 10.5868C95.6659 11.2257 95.2104 11.7429 94.5422 11.7429ZM90.8675 15.211C90.3208 14.9676 89.7438 14.7547 89.106 14.6026C88.4682 14.4504 87.8912 14.2983 87.3445 14.1158C86.7979 13.9333 86.3423 13.7507 85.9779 13.5378C85.6134 13.3248 85.4312 13.0206 85.4312 12.5947C85.4312 12.2296 85.5223 11.9558 85.7045 11.7429C85.8867 11.5299 86.0993 11.3474 86.3727 11.2257C86.646 11.104 86.9193 11.0128 87.223 10.9823C87.5267 10.9519 87.8001 10.9215 88.043 10.9215C88.8023 10.9215 89.4097 11.0432 89.8349 11.317C90.0171 11.4387 90.1993 11.5299 90.3815 11.6516C90.7156 11.895 91.2015 11.8646 91.5052 11.5604C91.9 11.1649 91.8393 10.526 91.3837 10.1914C91.0497 9.94799 90.7156 9.76546 90.3208 9.58292C89.5919 9.2787 88.863 9.12659 88.0734 9.12659C87.5875 9.12659 87.0408 9.18744 86.5245 9.30913C85.9779 9.43081 85.4919 9.61335 85.0364 9.88714C84.5808 10.1609 84.186 10.4956 83.8823 10.9215C83.5786 11.3474 83.4268 11.8646 83.4268 12.5034C83.4268 13.2944 83.609 13.9333 83.9734 14.3896C84.3379 14.8459 84.7934 15.211 85.3097 15.4544C85.8564 15.6977 86.4334 15.9107 87.0408 16.0324C87.6786 16.1541 88.2556 16.3062 88.7719 16.4583C89.3186 16.6104 89.7438 16.8234 90.1082 17.0363C90.4726 17.2797 90.6549 17.6447 90.6549 18.1315C90.6549 18.527 90.5638 18.8616 90.3815 19.105C90.1993 19.3484 89.9867 19.5613 89.7134 19.7134C89.44 19.8656 89.1667 19.9568 88.8326 19.9872C88.5289 20.0481 88.2253 20.0481 87.9823 20.0481C87.4964 20.0481 87.0712 20.0177 86.7067 19.9264C86.3423 19.8351 86.0386 19.7134 85.7653 19.5613C85.4919 19.4092 85.249 19.2267 85.006 19.0137C84.9453 18.9833 84.9149 18.9225 84.8542 18.892C84.5505 18.5878 84.0645 18.527 83.7001 18.7704C83.2142 19.0746 83.0927 19.7439 83.4875 20.2002C83.8823 20.6565 84.3379 20.9912 84.8238 21.2345C85.6438 21.63 86.646 21.843 87.8608 21.843C89.44 21.843 90.6549 21.4779 91.4749 20.7478C92.2949 20.0177 92.6897 19.0442 92.6897 17.7969C92.6897 17.1276 92.5074 16.58 92.143 16.1845C91.8697 15.789 91.4141 15.4544 90.8675 15.211ZM94.8459 10.6173C94.9978 10.5564 95.1496 10.4347 95.1496 10.2522C95.1496 10.1305 95.0889 10.0088 94.9978 9.94799C94.9067 9.88714 94.7852 9.8263 94.5119 9.8263C94.2993 9.8263 94.1474 9.85672 93.9956 9.85672V11.3474H94.2689V10.7085H94.4511C94.6637 10.7085 94.7548 10.7694 94.7852 10.9519C94.8156 11.1649 94.8459 11.2866 94.9067 11.3474H95.18C95.1496 11.2866 95.1193 11.1953 95.0585 10.9823C95.0585 10.7694 94.9978 10.6477 94.8459 10.6173ZM94.4815 10.4956H94.2993V10.0393C94.3296 10.0393 94.4208 10.0088 94.5119 10.0088C94.7852 10.0088 94.8763 10.1001 94.8763 10.2522C94.8459 10.4347 94.6941 10.4956 94.4815 10.4956ZM80.6935 15.211C80.1468 14.9676 79.5698 14.7547 78.932 14.6026C78.2942 14.4504 77.7172 14.2983 77.1705 14.1158C76.6239 13.9333 76.1683 13.7507 75.8039 13.5378C75.4394 13.3248 75.2572 13.0206 75.2572 12.5947C75.2572 12.2296 75.3483 11.9558 75.5305 11.7429C75.7128 11.5299 75.9253 11.3474 76.1987 11.2257C76.472 11.104 76.7453 11.0128 77.049 10.9823C77.3527 10.9519 77.6261 10.9215 77.869 10.9215C78.6283 10.9215 79.2357 11.0432 79.6609 11.317C79.8431 11.4387 80.0253 11.5299 80.2075 11.6516C80.5416 11.895 81.0275 11.8646 81.3312 11.5604C81.726 11.1649 81.6653 10.526 81.2097 10.1914C80.8757 9.94799 80.5416 9.76546 80.1468 9.58292C79.4179 9.2787 78.689 9.12659 77.8994 9.12659C77.4135 9.12659 76.8668 9.18744 76.3505 9.30913C75.8039 9.43081 75.3179 9.61335 74.8624 9.88714C74.4068 10.1609 74.012 10.4956 73.7083 10.9215C73.4046 11.3474 73.2528 11.8646 73.2528 12.5034C73.2528 13.2944 73.435 13.9333 73.7994 14.3896C74.1639 14.8459 74.6194 15.211 75.1357 15.4544C75.6824 15.6977 76.2594 15.9107 76.8668 16.0324C77.5046 16.1541 78.0816 16.3062 78.5979 16.4583C79.1446 16.6104 79.5698 16.8234 79.9342 17.0363C80.2986 17.2797 80.4809 17.6447 80.4809 18.1315C80.4809 18.527 80.3898 18.8616 80.2075 19.105C80.0253 19.3484 79.8127 19.5613 79.5394 19.7134C79.2661 19.8656 78.9927 19.9568 78.6587 19.9872C78.3549 20.0481 78.0513 20.0481 77.8083 20.0481C77.3224 20.0481 76.8972 20.0177 76.5327 19.9264C76.1683 19.8351 75.8646 19.7134 75.5913 19.5613C75.3179 19.4092 75.075 19.2267 74.832 19.0137C74.7713 18.9833 74.7409 18.9225 74.6802 18.892C74.3765 18.5878 73.8905 18.527 73.5261 18.7704C73.0402 19.0746 72.9187 19.7439 73.3135 20.2002C73.7083 20.6565 74.1639 20.9912 74.6498 21.2345C75.4698 21.63 76.472 21.843 77.6868 21.843C79.2661 21.843 80.4809 21.4779 81.3009 20.7478C82.1209 20.0177 82.5157 19.0442 82.5157 17.7969C82.5157 17.1276 82.3334 16.58 81.969 16.1845C81.6957 15.789 81.2401 15.4544 80.6935 15.211ZM70.3069 10.7694C69.7602 10.2218 69.1224 9.79588 68.4543 9.52208C67.7861 9.24828 67.0269 9.12659 66.2373 9.12659C65.4476 9.12659 64.6884 9.2787 63.9899 9.52208C63.2914 9.79588 62.684 10.2218 62.1069 10.7998C61.4692 11.4691 61.0743 12.1079 60.8921 12.7772C60.7099 13.4465 60.5884 14.1766 60.5884 15.0285V15.4848C60.5884 16.367 60.6795 17.1884 60.8618 17.9794C61.044 18.7704 61.4388 19.5005 62.0462 20.1089C62.5929 20.6869 63.261 21.1129 63.9595 21.4171C64.6884 21.6909 65.4476 21.843 66.2069 21.843C67.0269 21.843 67.7861 21.6909 68.4847 21.4171C69.1832 21.1433 69.8209 20.6869 70.3676 20.1089C71.0054 19.4396 71.4306 18.7095 71.6128 17.949C71.795 17.1884 71.8861 16.367 71.8861 15.4848V14.9676C71.8861 14.1462 71.7646 13.3553 71.4913 12.686C71.2787 12.0167 70.8839 11.3474 70.3069 10.7694ZM70.0032 15.4848C70.0032 16.1845 69.9121 16.8538 69.7602 17.4926C69.6084 18.1315 69.3046 18.6487 68.9098 19.0442C68.6061 19.3788 68.2417 19.6222 67.8165 19.8047C67.3913 19.9872 66.875 20.0785 66.2676 20.0785C65.5995 20.0785 65.0528 19.9872 64.5973 19.8047C64.1417 19.6222 63.7773 19.3484 63.4736 18.9833C63.1091 18.5574 62.8662 18.0707 62.7143 17.4926C62.5625 16.9146 62.5017 16.2758 62.5017 15.6065V15.0589C62.5017 13.8116 62.8358 12.8381 63.4736 12.1079C63.8077 11.7429 64.1721 11.4691 64.658 11.2561C65.1136 11.0432 65.6602 10.9519 66.2676 10.9519C66.9054 10.9519 67.4521 11.0736 67.938 11.2866C68.4239 11.4995 68.8187 11.8037 69.1528 12.1992C69.7602 12.9293 70.0639 13.9028 70.0639 15.0589V15.4848H70.0032Z" fill="white"/>
</svg>
